<?xml version="1.0" encoding="UTF-8" standalone="no"?>
<svg
   xmlns:dc="http://purl.org/dc/elements/1.1/"
   xmlns:cc="http://creativecommons.org/ns#"
   xmlns:svg="http://www.w3.org/2000/svg"
   xmlns="http://www.w3.org/2000/svg"
   version="1.1"
   viewBox="0 0 170.96 159.93">
  <path
     d="M 31 17.880859 L 17.890625 31 L 17.890625 141.66016 L 139.93945 141.66016 L 153.07031 128.5293 L 153.07031 17.880859 L 31 17.880859 z M 31 24.787109 L 31 128.5293 L 147.20117 128.5293 L 138.75195 136.89062 L 22.679688 136.89062 L 22.679688 32.466797 L 31 24.787109 z M 40.523438 26.912109 L 143.55664 26.912109 L 143.55664 119.50781 L 40.523438 119.50781 L 40.523438 26.912109 z M 62.599609 39.865234 L 62.599609 106.39453 L 104.37695 106.39453 C 115.25695 106.39453 120.69531 101.30686 120.69531 91.130859 L 120.69531 84.314453 C 120.69531 77.786453 118.23269 73.946922 113.30469 72.794922 C 117.84869 71.386922 120.12109 67.577141 120.12109 61.369141 L 120.12109 55.130859 C 120.12109 44.954859 114.68078 39.865234 103.80078 39.865234 L 62.599609 39.865234 z M 77 51.962891 L 101.40039 51.962891 C 104.40839 51.962891 105.91211 53.337844 105.91211 56.089844 L 105.91211 62.330078 C 105.91211 65.082078 104.40839 66.458984 101.40039 66.458984 L 77 66.458984 L 77 51.962891 z M 77 79.226562 L 101.97656 79.226562 C 104.98456 79.226562 106.48828 80.601516 106.48828 83.353516 L 106.48828 90.169922 C 106.48828 92.921922 104.98456 94.298828 101.97656 94.298828 L 77 94.298828 L 77 79.226562 z "
     style="fill:#09d3ac" />
</svg>
